<mxfile host="app.diagrams.net" modified="2023-11-14T20:39:56.490Z" agent="Mozilla/5.0 (Windows NT 10.0; Win64; x64; rv:109.0) Gecko/20100101 Firefox/119.0" version="22.1.1" etag="j_Weq9oz5ROzdJjV1-Q1" type="github">
  <diagram name="Page-1" id="0NY4W9H_qaBfPiEchEXz">
    <mxGraphModel>
      <root>
        <mxCell id="0" />
        <mxCell id="1" parent="0" />
      </root>
    </mxGraphModel>
  </diagram>
</mxfile>
